<svg width="128" height="128" viewBox="0 0 128 128" fill="none" xmlns="http://www.w3.org/2000/svg">
<rect width="128" height="128" fill="#FF0000"/>
<path d="M40.7443 124.015C40.7443 124.015 11.4872 120.976 11.4872 80.7129C11.4872 49.5661 34.7429 31.3338 34.7429 31.3338C34.7429 31.3338 44.4952 41.9693 51.9971 45.7677C59.4989 50.3258 62.4996 3.98535 62.4996 3.98535C62.4996 3.98535 116.513 33.6128 116.513 78.4339C116.513 124.774 86.5055 123.255 86.5055 123.255C86.5055 123.255 100.009 105.023 100.009 83.7517C100.009 60.9613 70.7516 32.8532 70.7516 32.8532C70.7516 32.8532 67.0007 66.279 54.9978 70.8371C42.9949 64 36.2432 53.3645 36.2432 53.3645C36.2432 53.3645 8.48644 97.4259 40.7443 124.015Z" fill="#6B1C1C"/>
<path d="M65.2324 124.015C48.3461 123.322 33.9927 114.32 33.9927 101.855C33.9927 89.3908 39.9029 83.851 39.9029 83.851C39.9029 83.851 44.1245 90.7758 49.1904 94.2381C54.2563 97.7005 64.3881 99.778 69.454 94.9306C74.5199 90.7758 76.2086 79.0037 76.2086 79.0037C76.2086 79.0037 88.029 86.6209 86.3404 99.778C85.4961 113.627 78.7415 124.015 65.2324 124.015Z" fill="#754813"/>
</svg>
